<svg fill="none" height="75" viewBox="0 0 75 75" width="75" xmlns="http://www.w3.org/2000/svg" xmlns:xlink="http://www.w3.org/1999/xlink"><mask id="a" height="40" maskUnits="userSpaceOnUse" width="40" x="17" y="18"><path d="m18 19h38v38h-38z" fill="#d9d9d9" stroke="#00008b" stroke-width="2"/></mask><path d="m37.5 74c20.1584 0 36.5-16.3416 36.5-36.5s-16.3416-36.5-36.5-36.5-36.5 16.3416-36.5 36.5 16.3416 36.5 36.5 36.5z" stroke="#fffafa" stroke-width="2"/><g mask="url(#a)"><path d="m49.624 39.957 1.707-1.707h-29.748c-.12 0-.156-.029-.188-.061-.033-.033-.062-.07-.062-.189 0-.12.03-.156.062-.189.032-.032.069-.061.188-.061h29.748l-1.707-1.707-7.792-7.792c-.025-.025-.057-.062-.062-.187-.0026-.026.0005-.0523.009-.077.0126-.0274.0306-.0519.053-.072.075-.075.117-.082.168-.082.05 0 .093.007.168.083l9.916 9.916c.05.05.068.078.072.085.0078.027.0112.055.01.083.0012.028-.0022.0561-.01.083-.0206.0311-.0448.0596-.072.085l-9.916 9.917c-.075.075-.117.082-.168.082-.05 0-.093-.007-.168-.082s-.082-.117-.082-.168.007-.093.082-.168z" fill="#fffafa" stroke="#fffafa" stroke-width="2"/></g></svg>