<svg fill="none" height="75" viewBox="0 0 75 75" width="75" xmlns="http://www.w3.org/2000/svg" xmlns:xlink="http://www.w3.org/1999/xlink"><mask id="a" height="40" maskUnits="userSpaceOnUse" width="40" x="17" y="18"><path d="m18 19h38v38h-38z" fill="#d9d9d9" stroke="#00008b" stroke-width="2"/></mask><path d="m37.5 74c20.158 0 36.5-16.342 36.5-36.5s-16.342-36.5-36.5-36.5-36.5 16.342-36.5 36.5 16.342 36.5 36.5 36.5z" stroke="#00008b" stroke-width="2"/><g mask="url(#a)"><path d="m49.624 39.957 1.707-1.707h-29.748c-.12 0-.156-.029-.188-.061-.033-.033-.062-.07-.062-.189 0-.12.03-.156.062-.189.032-.032.069-.061.188-.061h29.748l-1.707-1.707-7.792-7.792c-.025-.025-.057-.062-.062-.187a.181.181 0 0 1 .009-.077.22.22 0 0 1 .053-.072c.075-.075.117-.082.168-.082.05 0 .093.007.168.083l9.916 9.916c.05.05.068.078.072.085a.259.259 0 0 1 .01.083.259.259 0 0 1 -.01.083.476.476 0 0 1 -.072.085l-9.916 9.917c-.075.075-.117.082-.168.082-.05 0-.093-.007-.168-.082s-.082-.117-.082-.168.007-.093.082-.168z" fill="#00008b" stroke="#00008b" stroke-width="2"/></g></svg>